# Blender v2.93.5 OBJ File: 'downstep.blend'
# www.blender.org
mtllib downstep.mtl
o Cube
v 6.378260 0.401241 -1.385790
v 6.378260 0.001241 -1.385790
v 6.378260 0.401241 0.614210
v 6.378260 0.001241 0.614210
v -3.621740 0.401241 -1.385790
v -3.621740 0.001241 -1.385790
v -3.621740 0.401241 0.614210
v -3.621740 0.001241 0.614210
v 1.378260 0.401241 0.614210
v 1.378260 0.001241 0.614210
v 1.378260 0.401241 -1.385790
v 1.378260 0.001241 -1.385790
v 0.590188 0.401241 0.614210
v 0.590188 0.001241 -1.385790
v 0.590188 0.001241 0.614210
v 0.590188 0.401241 -1.385790
v 1.378260 0.209920 0.614210
v 1.378260 0.209920 -1.385790
v 0.590188 0.209920 0.614210
v 0.590188 0.209920 -1.385790
vt 0.500000 0.000000
vt 0.625000 0.000000
vt 0.625000 0.250000
vt 0.500000 0.250000
vt 0.375000 0.375000
vt 0.625000 0.375000
vt 0.625000 0.500000
vt 0.375000 0.500000
vt 0.375000 0.500000
vt 0.625000 0.500000
vt 0.625000 0.750000
vt 0.375000 0.750000
vt 0.375000 0.894702
vt 0.625000 0.894702
vt 0.625000 1.000000
vt 0.375000 1.000000
vt 0.269702 0.500000
vt 0.375000 0.500000
vt 0.375000 0.750000
vt 0.269702 0.750000
vt 0.625000 0.500000
vt 0.875000 0.500000
vt 0.875000 0.750000
vt 0.625000 0.750000
vt 0.125000 0.500000
vt 0.250000 0.500000
vt 0.250000 0.750000
vt 0.125000 0.750000
vt 0.375000 0.750000
vt 0.625000 0.750000
vt 0.625000 0.875000
vt 0.375000 0.875000
vt 0.250000 0.500000
vt 0.480298 0.000000
vt 0.269702 0.500000
vt 0.480298 0.250000
vt 0.375000 0.000000
vt 0.375000 0.250000
vt 0.375000 0.250000
vt 0.625000 0.250000
vt 0.625000 0.355298
vt 0.375000 0.355298
vt 0.269702 0.750000
vt 0.250000 0.750000
vn 0.0000 -1.0000 -0.0000
vn 0.0000 0.0000 -1.0000
vn -1.0000 0.0000 0.0000
vn 0.0000 0.0000 1.0000
vn 0.0000 1.0000 0.0000
vn 1.0000 0.0000 0.0000
usemtl Material
s off
f 12/1/1 2/2/1 4/3/1 10/4/1
f 12/5/2 11/6/2 1/7/2 2/8/2
f 8/9/3 7/10/3 5/11/3 6/12/3
f 15/13/4 13/14/4 7/15/4 8/16/4
f 16/17/5 5/18/5 7/19/5 13/20/5
f 2/21/6 1/22/6 3/23/6 4/24/6
f 1/25/5 11/26/5 9/27/5 3/28/5
f 4/29/4 3/30/4 9/31/4 10/32/4
f 18/33/2 12/1/2 14/34/2 20/35/2
f 14/34/1 12/1/1 10/4/1 15/36/1
f 6/37/1 14/34/1 15/36/1 8/38/1
f 6/39/2 5/40/2 16/41/2 14/42/2
f 13/20/6 19/43/6 20/35/6 16/17/6
f 15/36/4 10/4/4 17/44/4 19/43/4
f 18/33/5 20/35/5 19/43/5 17/44/5
f 9/27/3 11/26/3 18/33/3 17/44/3
